<mxfile host="app.diagrams.net" modified="2022-10-22T23:46:29.015Z" agent="5.0 (X11; Linux x86_64) AppleWebKit/537.36 (KHTML, like Gecko) Chrome/105.0.0.0 Safari/537.36" etag="bnblhwTi-7COfkwpFJrc" version="20.5.0" type="github">
  <diagram id="LM_F8ndnZJ1s3mw1dSna" name="Page-1">
    <mxGraphModel dx="1420" dy="752" grid="1" gridSize="10" guides="1" tooltips="1" connect="1" arrows="1" fold="1" page="1" pageScale="1" pageWidth="850" pageHeight="1100" math="0" shadow="0">
      <root>
        <mxCell id="0" />
        <mxCell id="1" parent="0" />
        <mxCell id="M-VvjJP3z_VUjuqldZtX-1" value="Device 1" style="rounded=0;whiteSpace=wrap;html=1;" vertex="1" parent="1">
          <mxGeometry x="120" y="160" width="160" height="80" as="geometry" />
        </mxCell>
        <mxCell id="M-VvjJP3z_VUjuqldZtX-2" value="Device 2" style="rounded=0;whiteSpace=wrap;html=1;" vertex="1" parent="1">
          <mxGeometry x="560" y="160" width="160" height="80" as="geometry" />
        </mxCell>
        <mxCell id="M-VvjJP3z_VUjuqldZtX-6" value="192.168.1.5&lt;br&gt;55100&lt;br&gt;client" style="text;strokeColor=none;fillColor=none;html=1;fontSize=24;fontStyle=1;verticalAlign=middle;align=center;" vertex="1" parent="1">
          <mxGeometry x="150" y="60" width="100" height="90" as="geometry" />
        </mxCell>
        <mxCell id="M-VvjJP3z_VUjuqldZtX-7" value="192.168.1.6&lt;br&gt;6205&lt;br&gt;server" style="text;strokeColor=none;fillColor=none;html=1;fontSize=24;fontStyle=1;verticalAlign=middle;align=center;" vertex="1" parent="1">
          <mxGeometry x="590" y="10" width="100" height="140" as="geometry" />
        </mxCell>
        <mxCell id="M-VvjJP3z_VUjuqldZtX-9" value="" style="endArrow=none;dashed=1;html=1;dashPattern=1 3;strokeWidth=2;rounded=0;" edge="1" parent="1">
          <mxGeometry width="50" height="50" relative="1" as="geometry">
            <mxPoint x="200" y="550" as="sourcePoint" />
            <mxPoint x="200" y="240" as="targetPoint" />
          </mxGeometry>
        </mxCell>
        <mxCell id="M-VvjJP3z_VUjuqldZtX-10" value="" style="endArrow=none;dashed=1;html=1;dashPattern=1 3;strokeWidth=2;rounded=0;" edge="1" parent="1">
          <mxGeometry width="50" height="50" relative="1" as="geometry">
            <mxPoint x="639.5" y="550" as="sourcePoint" />
            <mxPoint x="639.5" y="240" as="targetPoint" />
          </mxGeometry>
        </mxCell>
        <mxCell id="M-VvjJP3z_VUjuqldZtX-11" value="syn" style="endArrow=classic;html=1;rounded=0;" edge="1" parent="1">
          <mxGeometry width="50" height="50" relative="1" as="geometry">
            <mxPoint x="200" y="270" as="sourcePoint" />
            <mxPoint x="640" y="310" as="targetPoint" />
          </mxGeometry>
        </mxCell>
        <mxCell id="M-VvjJP3z_VUjuqldZtX-12" value="sync/ack" style="endArrow=classic;html=1;rounded=0;" edge="1" parent="1">
          <mxGeometry width="50" height="50" relative="1" as="geometry">
            <mxPoint x="640" y="310" as="sourcePoint" />
            <mxPoint x="200" y="340" as="targetPoint" />
          </mxGeometry>
        </mxCell>
        <mxCell id="M-VvjJP3z_VUjuqldZtX-14" value="ack" style="endArrow=classic;html=1;rounded=0;" edge="1" parent="1">
          <mxGeometry width="50" height="50" relative="1" as="geometry">
            <mxPoint x="200" y="340" as="sourcePoint" />
            <mxPoint x="640" y="380" as="targetPoint" />
          </mxGeometry>
        </mxCell>
        <mxCell id="M-VvjJP3z_VUjuqldZtX-15" value="Server Socket" style="rounded=0;whiteSpace=wrap;html=1;" vertex="1" parent="1">
          <mxGeometry x="120" y="720" width="120" height="60" as="geometry" />
        </mxCell>
        <mxCell id="M-VvjJP3z_VUjuqldZtX-16" value="client2" style="rounded=0;whiteSpace=wrap;html=1;" vertex="1" parent="1">
          <mxGeometry x="640" y="720" width="120" height="20" as="geometry" />
        </mxCell>
        <mxCell id="M-VvjJP3z_VUjuqldZtX-18" value="client1" style="rounded=0;whiteSpace=wrap;html=1;" vertex="1" parent="1">
          <mxGeometry x="630" y="600" width="120" height="20" as="geometry" />
        </mxCell>
        <mxCell id="M-VvjJP3z_VUjuqldZtX-20" value="client3" style="rounded=0;whiteSpace=wrap;html=1;" vertex="1" parent="1">
          <mxGeometry x="640" y="850" width="120" height="20" as="geometry" />
        </mxCell>
        <mxCell id="M-VvjJP3z_VUjuqldZtX-23" value="client_socket" style="shape=flexArrow;endArrow=classic;startArrow=classic;html=1;rounded=0;exitX=1;exitY=0.25;exitDx=0;exitDy=0;entryX=0;entryY=0.5;entryDx=0;entryDy=0;" edge="1" parent="1" source="M-VvjJP3z_VUjuqldZtX-15" target="M-VvjJP3z_VUjuqldZtX-18">
          <mxGeometry width="100" height="100" relative="1" as="geometry">
            <mxPoint x="270" y="770" as="sourcePoint" />
            <mxPoint x="370" y="670" as="targetPoint" />
          </mxGeometry>
        </mxCell>
        <mxCell id="M-VvjJP3z_VUjuqldZtX-24" value="" style="shape=flexArrow;endArrow=classic;startArrow=classic;html=1;rounded=0;exitX=1;exitY=0.5;exitDx=0;exitDy=0;entryX=0;entryY=0.25;entryDx=0;entryDy=0;" edge="1" parent="1" source="M-VvjJP3z_VUjuqldZtX-15" target="M-VvjJP3z_VUjuqldZtX-16">
          <mxGeometry width="100" height="100" relative="1" as="geometry">
            <mxPoint x="250" y="765" as="sourcePoint" />
            <mxPoint x="640" y="640" as="targetPoint" />
          </mxGeometry>
        </mxCell>
        <mxCell id="M-VvjJP3z_VUjuqldZtX-25" value="" style="shape=flexArrow;endArrow=classic;startArrow=classic;html=1;rounded=0;exitX=1;exitY=0.75;exitDx=0;exitDy=0;entryX=0;entryY=0.25;entryDx=0;entryDy=0;" edge="1" parent="1" source="M-VvjJP3z_VUjuqldZtX-15" target="M-VvjJP3z_VUjuqldZtX-20">
          <mxGeometry width="100" height="100" relative="1" as="geometry">
            <mxPoint x="250" y="835" as="sourcePoint" />
            <mxPoint x="640" y="710" as="targetPoint" />
          </mxGeometry>
        </mxCell>
      </root>
    </mxGraphModel>
  </diagram>
</mxfile>
